<svg width="32" height="32" viewBox="0 0 32 32" fill="none" xmlns="http://www.w3.org/2000/svg">
<rect x="0.5" y="0.5" width="31" height="31" fill="#39200A" stroke="#D79C6B"/>
<path d="M12.368 24C11.808 24 11.152 24.032 10.4 24.096C9.648 24.16 9.152 24.208 8.912 24.24L9.08 22.656C9.768 22.528 10.232 22.336 10.472 22.08C10.712 21.808 10.832 21.36 10.832 20.736L10.856 11.328C10.856 10.88 10.8 10.568 10.688 10.392C10.576 10.216 10.376 10.128 10.088 10.128C9.928 10.128 9.768 10.136 9.608 10.152C9.448 10.168 9.336 10.176 9.272 10.176L9.104 9.984L9.32 8.544C9.576 8.544 10.04 8.552 10.712 8.568C11.4 8.584 12.04 8.592 12.632 8.592C13.24 8.592 13.92 8.576 14.672 8.544C15.424 8.512 15.952 8.488 16.256 8.472C17.904 8.472 19.16 8.792 20.024 9.432C20.888 10.072 21.32 10.992 21.32 12.192C21.32 12.992 21.088 13.704 20.624 14.328C20.176 14.936 19.544 15.448 18.728 15.864C19.768 16.136 20.592 16.568 21.2 17.16C21.824 17.752 22.136 18.512 22.136 19.44C22.136 20.384 21.872 21.224 21.344 21.96C20.832 22.68 20.104 23.24 19.16 23.64C18.232 24.04 17.152 24.24 15.92 24.24C15.728 24.24 15.464 24.224 15.128 24.192C14.792 24.16 14.536 24.136 14.36 24.12C14.152 24.104 13.832 24.08 13.4 24.048C12.968 24.016 12.624 24 12.368 24ZM14.024 15.168C14.216 15.184 14.6 15.224 15.176 15.288C15.752 15.352 16.136 15.384 16.328 15.384C16.328 15.416 16.48 15.336 16.784 15.144C17.104 14.936 17.384 14.64 17.624 14.256C17.88 13.872 18.008 13.384 18.008 12.792C18.008 11.976 17.736 11.376 17.192 10.992C16.648 10.608 15.8 10.416 14.648 10.416C14.488 10.416 14.376 10.448 14.312 10.512C14.264 10.576 14.232 10.696 14.216 10.872C14.12 12.168 14.056 13.6 14.024 15.168ZM13.88 20.808C13.88 21.32 14.056 21.688 14.408 21.912C14.76 22.12 15.344 22.224 16.16 22.224C16.944 22.224 17.56 22.008 18.008 21.576C18.456 21.144 18.68 20.552 18.68 19.8C18.68 19.144 18.464 18.6 18.032 18.168C17.616 17.72 17.008 17.408 16.208 17.232L13.976 17.256L13.88 20.808Z" fill="#EEE5E0"/>
</svg>
