<svg width="191" height="22" viewBox="0 0 191 22" fill="none" xmlns="http://www.w3.org/2000/svg">
<path d="M4.824 21C4.07733 21 3.20267 21.0427 2.2 21.128C1.19733 21.2133 0.536 21.2773 0.216 21.32L0.44 19.208C1.35733 19.0373 1.976 18.7813 2.296 18.44C2.616 18.0773 2.776 17.48 2.776 16.648L2.808 4.104C2.808 3.50667 2.73333 3.09067 2.584 2.856C2.43467 2.62133 2.168 2.504 1.784 2.504C1.57067 2.504 1.35733 2.51467 1.144 2.536C0.930667 2.55733 0.781333 2.568 0.696 2.568L0.472 2.312L0.76 0.391998C1.10133 0.391998 1.72 0.402665 2.616 0.424C3.53333 0.445333 4.38667 0.455999 5.176 0.455999C5.98667 0.455999 6.89333 0.434666 7.896 0.391998C8.89867 0.349332 9.60267 0.317333 10.008 0.296C12.2053 0.296 13.88 0.722666 15.032 1.576C16.184 2.42933 16.76 3.656 16.76 5.256C16.76 6.32267 16.4507 7.272 15.832 8.104C15.2347 8.91467 14.392 9.59733 13.304 10.152C14.6907 10.5147 15.7893 11.0907 16.6 11.88C17.432 12.6693 17.848 13.6827 17.848 14.92C17.848 16.1787 17.496 17.2987 16.792 18.28C16.1093 19.24 15.1387 19.9867 13.88 20.52C12.6427 21.0533 11.2027 21.32 9.56 21.32C9.304 21.32 8.952 21.2987 8.504 21.256C8.056 21.2133 7.71467 21.1813 7.48 21.16C7.20267 21.1387 6.776 21.1067 6.2 21.064C5.624 21.0213 5.16533 21 4.824 21ZM7.032 9.224C7.288 9.24533 7.8 9.29867 8.568 9.384C9.336 9.46933 9.848 9.512 10.104 9.512C10.104 9.55467 10.3067 9.448 10.712 9.192C11.1387 8.91467 11.512 8.52 11.832 8.008C12.1733 7.496 12.344 6.84533 12.344 6.056C12.344 4.968 11.9813 4.168 11.256 3.656C10.5307 3.144 9.4 2.888 7.864 2.888C7.65067 2.888 7.50133 2.93067 7.416 3.016C7.352 3.10133 7.30933 3.26133 7.288 3.496C7.16 5.224 7.07467 7.13333 7.032 9.224ZM6.84 16.744C6.84 17.4267 7.07467 17.9173 7.544 18.216C8.01333 18.4933 8.792 18.632 9.88 18.632C10.9253 18.632 11.7467 18.344 12.344 17.768C12.9413 17.192 13.24 16.4027 13.24 15.4C13.24 14.5253 12.952 13.8 12.376 13.224C11.8213 12.6267 11.0107 12.2107 9.944 11.976L6.968 12.008L6.84 16.744ZM27.9705 21.288C25.5812 21.288 23.7038 20.5947 22.3385 19.208C20.9945 17.8 20.3225 15.8587 20.3225 13.384C20.3225 11.6133 20.6745 10.0773 21.3785 8.776C22.0825 7.45333 23.0852 6.44 24.3865 5.736C25.7092 5.032 27.2452 4.68 28.9945 4.68C31.4265 4.68 33.3145 5.37333 34.6585 6.76C36.0025 8.12533 36.6745 10.0453 36.6745 12.52C36.6745 14.2907 36.3118 15.8373 35.5865 17.16C34.8825 18.4827 33.8692 19.5067 32.5465 20.232C31.2452 20.936 29.7198 21.288 27.9705 21.288ZM28.6105 18.888C29.7625 18.888 30.6478 18.4613 31.2665 17.608C31.8852 16.7547 32.1945 15.5173 32.1945 13.896C32.1945 11.72 31.8532 10.088 31.1705 9C30.5092 7.912 29.5492 7.368 28.2905 7.368C27.1598 7.368 26.2958 7.784 25.6985 8.616C25.1012 9.448 24.8025 10.6853 24.8025 12.328C24.8025 14.5253 25.1225 16.168 25.7625 17.256C26.4238 18.344 27.3732 18.888 28.6105 18.888ZM46.5517 21.288C44.1624 21.288 42.2851 20.5947 40.9197 19.208C39.5757 17.8 38.9037 15.8587 38.9037 13.384C38.9037 11.6133 39.2557 10.0773 39.9597 8.776C40.6637 7.45333 41.6664 6.44 42.9677 5.736C44.2904 5.032 45.8264 4.68 47.5757 4.68C50.0077 4.68 51.8957 5.37333 53.2397 6.76C54.5837 8.12533 55.2557 10.0453 55.2557 12.52C55.2557 14.2907 54.8931 15.8373 54.1677 17.16C53.4637 18.4827 52.4504 19.5067 51.1277 20.232C49.8264 20.936 48.3011 21.288 46.5517 21.288ZM47.1917 18.888C48.3437 18.888 49.2291 18.4613 49.8477 17.608C50.4664 16.7547 50.7757 15.5173 50.7757 13.896C50.7757 11.72 50.4344 10.088 49.7517 9C49.0904 7.912 48.1304 7.368 46.8717 7.368C45.7411 7.368 44.8771 7.784 44.2797 8.616C43.6824 9.448 43.3837 10.6853 43.3837 12.328C43.3837 14.5253 43.7037 16.168 44.3437 17.256C45.0051 18.344 45.9544 18.888 47.1917 18.888ZM59.757 8.04C59.757 7.50667 59.693 7.16533 59.565 7.016C59.437 6.84533 59.181 6.76 58.797 6.76H58.029L57.869 6.504L58.093 4.936L61.773 4.968C62.2423 4.968 62.9143 4.94667 63.789 4.904C64.685 4.86133 65.2823 4.82933 65.581 4.808L65.453 6.632C64.7917 6.76 64.3543 6.92 64.141 7.112C63.9277 7.28267 63.8103 7.60267 63.789 8.072L63.533 17.544C63.5117 18.2267 63.565 18.6853 63.693 18.92C63.8423 19.1333 64.1197 19.24 64.525 19.24C64.781 19.24 64.9943 19.2293 65.165 19.208C65.357 19.1867 65.4743 19.176 65.517 19.176L65.645 19.368L65.421 21.064C65.1223 21.064 64.5677 21.0533 63.757 21.032C62.9677 21.0107 62.2103 21 61.485 21C60.6743 21 59.8957 21.0107 59.149 21.032C58.4237 21.0533 57.933 21.064 57.677 21.064L57.933 19.336C58.6797 19.2293 59.1597 19.0587 59.373 18.824C59.6077 18.568 59.725 18.0773 59.725 17.352L59.757 8.04ZM67.789 8.712C68.2157 8.28533 68.429 7.88 68.429 7.496C68.429 7.24 68.3223 7.05867 68.109 6.952C67.917 6.824 67.5863 6.74933 67.117 6.728L67.021 6.536L67.245 4.872C67.501 4.872 67.9597 4.89333 68.621 4.936C69.3037 4.95733 69.9757 4.968 70.637 4.968C71.2557 4.968 71.885 4.95733 72.525 4.936C73.165 4.89333 73.6023 4.872 73.837 4.872L74.061 5.16L73.837 6.696C73.2823 6.93067 72.7383 7.28267 72.205 7.752C71.693 8.2 71.053 8.872 70.285 9.768L67.885 12.296L71.149 17.16C71.661 17.928 72.1303 18.4827 72.557 18.824C73.005 19.144 73.517 19.3253 74.093 19.368L74.285 19.624L74.061 21.096C73.7623 21.1173 73.261 21.16 72.557 21.224C71.853 21.3093 71.2663 21.3627 70.797 21.384C70.221 21.384 69.6983 21.224 69.229 20.904C68.781 20.5627 68.3223 20.0293 67.853 19.304L64.013 13.128L64.077 12.52L67.789 8.712ZM114.216 21.48C113.896 20.2853 113.213 17.7893 112.168 13.992C111.144 10.1947 110.237 7.016 109.448 4.456C109.256 3.79467 108.968 3.31467 108.584 3.016C108.221 2.696 107.709 2.52533 107.048 2.504L106.92 2.28L107.144 0.391998C107.442 0.391998 107.986 0.402665 108.776 0.424C109.565 0.445333 110.365 0.455999 111.176 0.455999C112.136 0.455999 113.181 0.423999 114.312 0.359999C115.464 0.274665 116.21 0.221332 116.552 0.199999L116.712 0.455999L116.584 2.344C115.837 2.42933 115.293 2.51466 114.952 2.6C114.61 2.664 114.376 2.77067 114.248 2.92C114.141 3.06933 114.088 3.29333 114.088 3.592C114.088 4.06133 114.504 6.07733 115.336 9.64C116.168 13.1813 116.744 15.592 117.064 16.872H117.544C118.056 15.5707 118.866 13.128 119.976 9.544C121.085 5.96 121.64 3.93333 121.64 3.464C121.64 3.10133 121.512 2.84533 121.256 2.696C121.021 2.54667 120.594 2.472 119.976 2.472H118.696L118.568 2.248L118.76 0.296C119.058 0.317333 119.709 0.349332 120.712 0.391998C121.736 0.434666 122.664 0.455999 123.496 0.455999C124.349 0.455999 125.117 0.445333 125.8 0.424C126.504 0.402665 126.973 0.391998 127.208 0.391998L126.984 2.472C126.45 2.55733 126.077 2.70667 125.864 2.92C125.65 3.112 125.437 3.51733 125.224 4.136L119.304 20.84L114.216 21.48ZM128.757 19.432C129.525 19.2827 130.026 19.08 130.261 18.824C130.495 18.5467 130.613 18.056 130.613 17.352L130.645 8.04C130.645 7.528 130.581 7.18667 130.453 7.016C130.325 6.84533 130.069 6.76 129.685 6.76H128.821L128.693 6.504L128.853 4.936L132.661 4.968C133.13 4.968 133.823 4.94667 134.741 4.904C135.658 4.86133 136.266 4.82933 136.565 4.808L136.405 6.632C135.743 6.71733 135.306 6.84533 135.093 7.016C134.901 7.18667 134.783 7.50667 134.741 7.976C134.527 11.112 134.421 14.3013 134.421 17.544C134.421 18.2267 134.485 18.6853 134.613 18.92C134.741 19.1333 135.007 19.24 135.413 19.24C135.69 19.24 135.914 19.2293 136.085 19.208C136.277 19.1867 136.405 19.176 136.469 19.176L136.629 19.368L136.405 21.064C136.106 21.064 135.541 21.0533 134.709 21.032C133.898 21.0107 133.119 21 132.373 21C131.754 21 131.029 21.0213 130.197 21.064C129.365 21.128 128.821 21.1707 128.565 21.192L128.757 19.432ZM146.634 21.288C146.357 21.2453 145.781 21.1813 144.906 21.096C144.032 21.032 143.274 21 142.634 21C142.037 21 141.365 21.032 140.618 21.096C139.893 21.1813 139.413 21.2347 139.178 21.256L139.338 19.368C140.064 19.2613 140.554 19.0693 140.81 18.792C141.066 18.4933 141.194 17.992 141.194 17.288L141.226 8.104C141.226 7.57067 141.162 7.21867 141.034 7.048C140.928 6.856 140.725 6.76 140.426 6.76C140.234 6.76 140.053 6.77067 139.882 6.792C139.733 6.81333 139.626 6.824 139.562 6.824L139.402 6.568L139.626 4.904C139.882 4.904 140.362 4.91467 141.066 4.936C141.77 4.95733 142.442 4.968 143.082 4.968C143.872 4.968 144.693 4.95733 145.546 4.936C146.4 4.89333 146.986 4.86133 147.306 4.84C149.994 4.84 152.085 5.49067 153.578 6.792C155.072 8.09333 155.818 9.93867 155.818 12.328C155.818 14.0987 155.434 15.6667 154.666 17.032C153.898 18.376 152.81 19.4213 151.402 20.168C150.016 20.9147 148.426 21.288 146.634 21.288ZM145.994 7.272C145.717 7.272 145.525 7.31467 145.418 7.4C145.333 7.48533 145.28 7.64533 145.258 7.88C145.045 12.04 144.938 15.1653 144.938 17.256C144.938 17.9173 145.066 18.3547 145.322 18.568C145.6 18.7813 146.122 18.888 146.89 18.888C149.834 18.888 151.306 16.968 151.306 13.128C151.306 11.0587 150.88 9.56533 150.026 8.648C149.173 7.73067 147.829 7.272 145.994 7.272ZM158.419 19.4C159.144 19.3147 159.635 19.1227 159.891 18.824C160.147 18.504 160.275 17.9707 160.275 17.224L160.307 8.104C160.307 7.57067 160.254 7.21867 160.147 7.048C160.04 6.856 159.816 6.76 159.475 6.76L158.707 6.792L158.515 6.536L158.739 4.904C159.08 4.904 159.731 4.91467 160.691 4.936C161.672 4.95733 162.718 4.968 163.827 4.968C167.603 4.968 170.291 4.872 171.891 4.68L172.115 4.968C172.051 5.24533 171.944 5.85333 171.795 6.792C171.667 7.70933 171.571 8.65867 171.507 9.64L168.851 9.8C168.851 9.736 168.862 9.608 168.883 9.416C168.904 9.20267 168.915 9 168.915 8.808C168.915 8.33867 168.84 8.008 168.691 7.816C168.542 7.624 168.254 7.496 167.827 7.432C167.4 7.34667 166.696 7.304 165.715 7.304C165.139 7.304 164.776 7.34667 164.627 7.432C164.499 7.51733 164.424 7.73067 164.403 8.072L164.243 11.688H166.611C166.995 11.688 167.539 11.6667 168.243 11.624C168.947 11.56 169.416 11.5173 169.651 11.496L169.907 11.784L169.523 14.088C169.288 14.088 168.84 14.0773 168.179 14.056C167.539 14.0347 166.856 14.024 166.131 14.024C165.555 14.024 164.894 14.0773 164.147 14.184C164.104 15.208 164.083 16.2533 164.083 17.32C164.083 17.7893 164.115 18.12 164.179 18.312C164.243 18.504 164.382 18.6427 164.595 18.728C164.808 18.792 165.171 18.824 165.683 18.824C166.75 18.824 167.528 18.76 168.019 18.632C168.51 18.4827 168.862 18.2267 169.075 17.864C169.288 17.48 169.459 16.8613 169.587 16.008L172.019 15.816L172.275 16.104C172.211 16.36 172.094 16.9573 171.923 17.896C171.774 18.8347 171.646 19.8267 171.539 20.872L171.251 21.16C170.718 21.1387 169.555 21.1067 167.763 21.064C165.992 21.0213 164.392 21 162.963 21C161.96 21 160.99 21.032 160.051 21.096C159.112 21.1813 158.504 21.2347 158.227 21.256L158.419 19.4ZM182.014 21.288C179.625 21.288 177.748 20.5947 176.382 19.208C175.038 17.8 174.366 15.8587 174.366 13.384C174.366 11.6133 174.718 10.0773 175.422 8.776C176.126 7.45333 177.129 6.44 178.43 5.736C179.753 5.032 181.289 4.68 183.038 4.68C185.47 4.68 187.358 5.37333 188.702 6.76C190.046 8.12533 190.718 10.0453 190.718 12.52C190.718 14.2907 190.356 15.8373 189.63 17.16C188.926 18.4827 187.913 19.5067 186.59 20.232C185.289 20.936 183.764 21.288 182.014 21.288ZM182.654 18.888C183.806 18.888 184.692 18.4613 185.31 17.608C185.929 16.7547 186.238 15.5173 186.238 13.896C186.238 11.72 185.897 10.088 185.214 9C184.553 7.912 183.593 7.368 182.334 7.368C181.204 7.368 180.34 7.784 179.742 8.616C179.145 9.448 178.846 10.6853 178.846 12.328C178.846 14.5253 179.166 16.168 179.806 17.256C180.468 18.344 181.417 18.888 182.654 18.888Z" fill="#EEE5E0"/>
<path d="M76.3892 19.24C77.3279 19.048 77.9572 18.7813 78.2772 18.44C78.5972 18.0773 78.7572 17.448 78.7572 16.552V4.168C78.7572 3.50667 78.6826 3.06933 78.5332 2.856C78.3839 2.62133 78.0746 2.504 77.6052 2.504L76.4852 2.536L76.3252 2.28L76.5812 0.424L80.9972 0.455999C81.7012 0.455999 83.1946 0.381332 85.4772 0.231998L85.3172 2.344C84.5066 2.45067 83.9626 2.62133 83.6852 2.856C83.4292 3.06933 83.2799 3.47467 83.2372 4.072C82.9599 9.10667 82.8212 13.3413 82.8212 16.776C82.8212 17.6507 82.9066 18.2373 83.0772 18.536C83.2479 18.8347 83.5786 18.984 84.0692 18.984C84.3039 18.984 84.7732 18.952 85.4772 18.888L85.6052 19.08L85.3172 21.096L84.1652 21.064L80.6132 21C79.6319 21 78.1599 21.096 76.1972 21.288L76.3892 19.24ZM101.049 7.816C101.027 7.41067 100.953 7.13333 100.825 6.984C100.697 6.83467 100.483 6.76 100.185 6.76H99.2888L99.1928 6.536L99.3528 4.872C99.6088 4.89333 100.089 4.91467 100.793 4.936C101.497 4.95733 102.211 4.968 102.937 4.968C103.641 4.968 104.302 4.95733 104.921 4.936C105.539 4.89333 105.955 4.86133 106.169 4.84L106.041 6.664C105.465 6.74933 105.049 6.90933 104.793 7.144C104.558 7.37867 104.43 7.74133 104.409 8.232L104.025 21.256L100.857 21.576C99.2354 19.1867 97.7101 17.0107 96.2808 15.048C94.8728 13.064 93.9768 11.8053 93.5928 11.272H93.3048V18.088C93.3048 18.536 93.3688 18.8453 93.4968 19.016C93.6461 19.1867 93.8914 19.272 94.2328 19.272C94.4248 19.272 94.6274 19.2613 94.8408 19.24C95.0754 19.2187 95.2354 19.208 95.3208 19.208L95.4808 19.368L95.1927 21.096C94.9368 21.096 94.4568 21.0747 93.7528 21.032C93.0488 21.0107 92.3554 21 91.6727 21C91.0541 21 90.3821 21.0213 89.6568 21.064C88.9528 21.128 88.4941 21.1707 88.2808 21.192L88.5048 19.368C89.0381 19.304 89.4221 19.1547 89.6568 18.92C89.8914 18.6853 90.0194 18.312 90.0408 17.8L90.3928 8.264C90.3928 7.73067 90.2541 7.368 89.9768 7.176C89.6994 6.96267 89.1341 6.80267 88.2808 6.696L88.0568 6.44L88.2488 4.84C88.4408 4.86133 88.8781 4.89333 89.5608 4.936C90.2434 4.95733 90.8728 4.968 91.4488 4.968C92.0674 4.968 92.6328 4.95733 93.1448 4.936C93.6568 4.91467 93.9981 4.89333 94.1688 4.872C95.4914 6.94133 96.8248 8.936 98.1688 10.856C99.5341 12.7547 100.419 13.9707 100.825 14.504H101.113L101.049 7.816Z" fill="#D79C6B"/>
</svg>
