<svg width="147" height="17" viewBox="0 0 147 17" fill="none" xmlns="http://www.w3.org/2000/svg">
<path d="M4.656 16C4.016 16 3.208 16.024 2.232 16.072C1.256 16.12 0.616 16.152 0.312 16.168L0.528 14.008C1.152 13.896 1.576 13.72 1.8 13.48C2.024 13.24 2.136 12.832 2.136 12.256L2.16 3.688C2.16 2.952 1.944 2.584 1.512 2.584C1.352 2.584 1.192 2.592 1.032 2.608C0.872 2.624 0.76 2.632 0.696 2.632L0.408 2.344L0.696 0.423999L4.752 0.472C5.456 0.456 6.296 0.432 7.272 0.399999C8.264 0.351999 8.96 0.319999 9.36 0.303999C11.152 0.303999 12.512 0.631999 13.44 1.288C14.368 1.928 14.832 2.864 14.832 4.096C14.832 4.912 14.624 5.608 14.208 6.184C13.792 6.76 13.224 7.288 12.504 7.768C13.4 8.088 14.12 8.512 14.664 9.04C15.224 9.552 15.504 10.288 15.504 11.248C15.504 14.592 13.2 16.264 8.592 16.264C8.24 16.216 7.576 16.16 6.6 16.096C5.624 16.032 4.976 16 4.656 16ZM6.96 6.664C7.104 6.696 7.4 6.752 7.848 6.832C8.312 6.896 8.656 6.928 8.88 6.928C8.88 6.96 8.968 6.888 9.144 6.712C9.336 6.52 9.504 6.28 9.648 5.992C9.808 5.688 9.888 5.344 9.888 4.96C9.888 4.4 9.696 3.992 9.312 3.736C8.928 3.464 8.344 3.328 7.56 3.328C7.4 3.328 7.288 3.352 7.224 3.4C7.176 3.448 7.144 3.536 7.128 3.664C7.096 4.096 7.056 4.656 7.008 5.344C6.976 6.016 6.96 6.456 6.96 6.664ZM6.792 12.16C6.792 12.544 6.928 12.824 7.2 13C7.488 13.176 7.936 13.264 8.544 13.264C9.136 13.264 9.584 13.12 9.888 12.832C10.192 12.528 10.344 12.088 10.344 11.512C10.344 11.112 10.208 10.76 9.936 10.456C9.68 10.152 9.304 9.92 8.808 9.76H6.912L6.792 12.16ZM22.5981 16.216C20.6461 16.216 19.1581 15.704 18.1341 14.68C17.1261 13.64 16.6221 12.12 16.6221 10.12C16.6221 7.992 17.1661 6.392 18.2541 5.32C19.3581 4.232 20.9821 3.688 23.1261 3.688C25.1421 3.688 26.6381 4.184 27.6141 5.176C28.6061 6.152 29.1021 7.648 29.1021 9.664C29.1021 11.792 28.5421 13.416 27.4221 14.536C26.3181 15.656 24.7101 16.216 22.5981 16.216ZM22.9581 13.624C23.4221 13.624 23.7341 13.432 23.8941 13.048C24.0701 12.664 24.1581 11.952 24.1581 10.912C24.1581 9.728 24.1181 8.824 24.0381 8.2C23.9581 7.576 23.8141 7.136 23.6061 6.88C23.4141 6.624 23.1261 6.496 22.7421 6.496C22.4221 6.496 22.1741 6.576 21.9981 6.736C21.8381 6.896 21.7261 7.168 21.6621 7.552C21.5981 7.92 21.5661 8.456 21.5661 9.16C21.5661 10.344 21.6061 11.256 21.6861 11.896C21.7661 12.52 21.9021 12.968 22.0941 13.24C22.2861 13.496 22.5741 13.624 22.9581 13.624ZM36.1871 16.216C34.2351 16.216 32.7471 15.704 31.7231 14.68C30.7151 13.64 30.2111 12.12 30.2111 10.12C30.2111 7.992 30.7551 6.392 31.8431 5.32C32.9471 4.232 34.5711 3.688 36.7151 3.688C38.7311 3.688 40.2271 4.184 41.2031 5.176C42.1951 6.152 42.6911 7.648 42.6911 9.664C42.6911 11.792 42.1311 13.416 41.0111 14.536C39.9071 15.656 38.2991 16.216 36.1871 16.216ZM36.5471 13.624C37.0111 13.624 37.3231 13.432 37.4831 13.048C37.6591 12.664 37.7471 11.952 37.7471 10.912C37.7471 9.728 37.7071 8.824 37.6271 8.2C37.5471 7.576 37.4031 7.136 37.1951 6.88C37.0031 6.624 36.7151 6.496 36.3311 6.496C36.0111 6.496 35.7631 6.576 35.5871 6.736C35.4271 6.896 35.3151 7.168 35.2511 7.552C35.1871 7.92 35.1551 8.456 35.1551 9.16C35.1551 10.344 35.1951 11.256 35.2751 11.896C35.3551 12.52 35.4911 12.968 35.6831 13.24C35.8751 13.496 36.1631 13.624 36.5471 13.624ZM51.7202 7.168C51.8322 7.056 51.9202 6.928 51.9842 6.784C52.0642 6.624 52.1042 6.472 52.1042 6.328C52.1042 6.104 52.0482 5.952 51.9362 5.872C51.8402 5.792 51.6482 5.744 51.3602 5.728L51.2162 5.512L51.4082 3.856C51.6322 3.856 52.0322 3.864 52.6082 3.88C53.1842 3.896 53.7602 3.904 54.3362 3.904C54.8482 3.904 55.4162 3.896 56.0402 3.88C56.6642 3.848 57.0962 3.824 57.3362 3.808L57.5522 4.12L57.3602 5.632C56.3682 6.208 55.3602 7.192 54.3362 8.584L53.8322 9.304L55.4882 12.568C55.7602 13.112 56.0402 13.52 56.3282 13.792C56.6162 14.048 56.9602 14.208 57.3602 14.272L57.5762 14.584L57.3602 16.096C57.0722 16.112 56.5122 16.152 55.6802 16.216C54.8642 16.28 54.3442 16.312 54.1202 16.312C53.5762 16.312 53.1522 16.208 52.8482 16C52.5442 15.792 52.2402 15.392 51.9362 14.8L49.5602 10.072L49.6562 9.472L51.7202 7.168ZM45.1682 6.64C45.1682 6.256 45.1202 6.008 45.0242 5.896C44.9282 5.768 44.7442 5.704 44.4722 5.704H43.9682L43.7762 5.416L43.9682 3.88L47.2802 3.904C47.9042 3.904 48.5842 3.896 49.3202 3.88C50.0722 3.848 50.5922 3.832 50.8802 3.832L50.7362 5.656C50.2402 5.784 49.9202 5.912 49.7762 6.04C49.6482 6.152 49.5762 6.368 49.5602 6.688L49.4162 12.952C49.4162 13.464 49.4562 13.808 49.5362 13.984C49.6162 14.144 49.7842 14.224 50.0402 14.224C50.2162 14.224 50.3522 14.216 50.4482 14.2C50.5442 14.184 50.6082 14.176 50.6402 14.176L50.8082 14.392L50.6402 16.072C50.3522 16.072 49.8482 16.056 49.1282 16.024C48.4242 16.008 47.7762 16 47.1842 16C46.4642 16 45.7682 16.008 45.0962 16.024C44.4402 16.056 43.9922 16.08 43.7522 16.096L43.8962 14.392C44.4242 14.264 44.7682 14.104 44.9282 13.912C45.0882 13.72 45.1682 13.36 45.1682 12.832V6.64ZM86.7891 16.312C86.5651 15.288 86.1011 13.28 85.3971 10.288C84.7091 7.28 84.2291 5.24 83.9571 4.168C83.8131 3.624 83.6371 3.232 83.4291 2.992C83.2371 2.752 82.9731 2.608 82.6371 2.56L82.4691 2.32L82.6611 0.423999C82.8851 0.423999 83.3091 0.431999 83.9331 0.448C84.5731 0.464 85.2451 0.472 85.9491 0.472C86.8931 0.472 87.8291 0.455999 88.7571 0.423999C89.6851 0.391999 90.2771 0.368 90.5331 0.352L90.7251 0.568L90.5811 2.584C90.0371 2.648 89.6691 2.704 89.4771 2.752C89.2851 2.8 89.1651 2.864 89.1171 2.944C89.0691 3.024 89.0451 3.176 89.0451 3.4C89.0451 3.8 89.2211 5.128 89.5731 7.384C89.9411 9.64 90.1971 11.168 90.3411 11.968H90.8691C91.0771 11.12 91.4531 9.52 91.9971 7.168C92.5571 4.8 92.8371 3.448 92.8371 3.112C92.8371 2.904 92.7891 2.776 92.6931 2.728C92.6131 2.664 92.4131 2.632 92.0931 2.632H91.4691L91.2771 2.392L91.4691 0.399999C91.7091 0.415999 92.1811 0.431999 92.8851 0.448C93.6051 0.464 94.3651 0.472 95.1651 0.472L98.1171 0.448L97.9491 2.536C97.6931 2.616 97.5011 2.744 97.3731 2.92C97.2451 3.08 97.1091 3.392 96.9651 3.856L93.3891 15.904L86.7891 16.312ZM98.7921 14.344C99.3201 14.232 99.6561 14.088 99.8001 13.912C99.9601 13.72 100.04 13.36 100.04 12.832V6.64C100.04 6.256 99.9921 6.008 99.8961 5.896C99.8001 5.768 99.6161 5.704 99.3441 5.704H98.8641L98.6721 5.416L98.8401 3.904H102.152C102.76 3.904 103.432 3.896 104.168 3.88C104.92 3.848 105.44 3.832 105.728 3.832L105.584 5.656C105.136 5.72 104.848 5.808 104.72 5.92C104.592 6.032 104.512 6.264 104.48 6.616C104.352 8.28 104.288 10.392 104.288 12.952C104.288 13.464 104.328 13.808 104.408 13.984C104.488 14.144 104.656 14.224 104.912 14.224C105.088 14.224 105.224 14.216 105.32 14.2C105.416 14.184 105.472 14.176 105.488 14.176L105.656 14.392L105.488 16.072C105.216 16.072 104.72 16.056 104 16.024C103.296 16.008 102.648 16 102.056 16C101.336 16 100.64 16.008 99.9681 16.024C99.3121 16.04 98.8641 16.056 98.6241 16.072L98.7921 14.344ZM112.826 16.216C112.618 16.184 112.162 16.136 111.458 16.072C110.77 16.024 110.154 16 109.61 16C109.146 16 108.594 16.016 107.954 16.048C107.314 16.096 106.898 16.128 106.706 16.144L106.85 14.248C107.346 14.184 107.682 14.04 107.858 13.816C108.034 13.592 108.122 13.224 108.122 12.712V6.736C108.122 6.352 108.082 6.088 108.002 5.944C107.938 5.8 107.818 5.728 107.642 5.728C107.498 5.728 107.362 5.736 107.234 5.752C107.122 5.768 107.05 5.776 107.018 5.776L106.802 5.488L106.994 3.856C107.25 3.856 107.698 3.864 108.338 3.88C108.978 3.896 109.578 3.904 110.138 3.904C110.746 3.904 111.386 3.888 112.058 3.856C112.746 3.824 113.218 3.8 113.474 3.784C115.586 3.784 117.162 4.248 118.202 5.176C119.242 6.104 119.762 7.512 119.762 9.4C119.762 11.528 119.146 13.2 117.914 14.416C116.682 15.616 114.986 16.216 112.826 16.216ZM112.85 6.424C112.722 6.424 112.626 6.464 112.562 6.544C112.514 6.624 112.482 6.752 112.466 6.928C112.338 8.432 112.274 10.416 112.274 12.88C112.274 13.184 112.306 13.392 112.37 13.504C112.45 13.6 112.578 13.648 112.754 13.648C113.282 13.648 113.698 13.544 114.002 13.336C114.306 13.112 114.522 12.752 114.65 12.256C114.778 11.744 114.842 11.048 114.842 10.168C114.842 9.128 114.786 8.352 114.674 7.84C114.578 7.312 114.386 6.944 114.098 6.736C113.826 6.528 113.41 6.424 112.85 6.424ZM120.977 14.32C121.457 14.256 121.785 14.104 121.961 13.864C122.137 13.624 122.225 13.224 122.225 12.664L122.249 6.712C122.249 6.296 122.217 6.024 122.153 5.896C122.089 5.768 121.953 5.704 121.745 5.704L121.241 5.728L120.977 5.44L121.169 3.856C121.505 3.856 122.137 3.864 123.065 3.88C124.009 3.896 125.001 3.904 126.041 3.904C127.241 3.904 128.433 3.888 129.617 3.856C130.801 3.808 131.673 3.752 132.233 3.688L132.521 4C132.473 4.24 132.393 4.76 132.281 5.56C132.185 6.344 132.113 7.104 132.065 7.84L129.065 8.008C129.065 7.96 129.073 7.872 129.089 7.744C129.105 7.616 129.113 7.48 129.113 7.336C129.113 6.952 128.993 6.696 128.753 6.568C128.513 6.44 128.033 6.376 127.313 6.376C127.073 6.376 126.913 6.408 126.833 6.472C126.753 6.536 126.713 6.656 126.713 6.832L126.617 8.68H128.177C128.577 8.68 128.993 8.672 129.425 8.656C129.857 8.624 130.161 8.6 130.337 8.584L130.601 8.896L130.313 11.224C130.153 11.224 129.849 11.216 129.401 11.2C128.953 11.184 128.481 11.176 127.985 11.176C127.713 11.176 127.425 11.192 127.121 11.224C126.817 11.24 126.609 11.256 126.497 11.272C126.481 11.448 126.473 11.664 126.473 11.92C126.489 12.176 126.497 12.368 126.497 12.496C126.497 12.976 126.545 13.288 126.641 13.432C126.737 13.56 126.977 13.624 127.361 13.624C127.889 13.624 128.281 13.576 128.537 13.48C128.809 13.384 129.009 13.208 129.137 12.952C129.281 12.68 129.393 12.264 129.473 11.704L132.233 11.512L132.497 11.824C132.449 12.048 132.361 12.552 132.233 13.336C132.121 14.104 132.025 14.928 131.945 15.808L131.609 16.12C131.241 16.104 130.409 16.08 129.113 16.048C127.833 16.016 126.521 16 125.177 16C124.281 16 123.385 16.024 122.489 16.072C121.609 16.136 121.041 16.176 120.785 16.192L120.977 14.32ZM139.532 16.216C137.58 16.216 136.092 15.704 135.068 14.68C134.06 13.64 133.556 12.12 133.556 10.12C133.556 7.992 134.1 6.392 135.188 5.32C136.292 4.232 137.916 3.688 140.06 3.688C142.076 3.688 143.572 4.184 144.548 5.176C145.54 6.152 146.036 7.648 146.036 9.664C146.036 11.792 145.476 13.416 144.356 14.536C143.252 15.656 141.644 16.216 139.532 16.216ZM139.892 13.624C140.356 13.624 140.668 13.432 140.828 13.048C141.004 12.664 141.092 11.952 141.092 10.912C141.092 9.728 141.052 8.824 140.972 8.2C140.892 7.576 140.748 7.136 140.54 6.88C140.348 6.624 140.06 6.496 139.676 6.496C139.356 6.496 139.108 6.576 138.932 6.736C138.772 6.896 138.66 7.168 138.596 7.552C138.532 7.92 138.5 8.456 138.5 9.16C138.5 10.344 138.54 11.256 138.62 11.896C138.7 12.52 138.836 12.968 139.028 13.24C139.22 13.496 139.508 13.624 139.892 13.624Z" fill="white"/>
<path d="M58.5411 14.08C59.1811 13.936 59.5971 13.736 59.7891 13.48C59.9971 13.224 60.1011 12.768 60.1011 12.112V3.808C60.1011 3.312 60.0451 2.984 59.9331 2.824C59.8211 2.664 59.5971 2.584 59.2611 2.584L58.6371 2.608L58.4211 2.272L58.6131 0.472H62.4771C62.8611 0.472 64.2371 0.432 66.6051 0.352L66.4371 2.512C65.8931 2.592 65.5331 2.712 65.3571 2.872C65.1971 3.016 65.1011 3.312 65.0691 3.76C64.9091 6.528 64.8291 9.36 64.8291 12.256C64.8291 12.928 64.8771 13.376 64.9731 13.6C65.0851 13.808 65.2931 13.912 65.5971 13.912C65.9011 13.912 66.1571 13.888 66.3651 13.84L66.5571 14.08L66.3411 16.096C64.5811 16.032 63.2451 16 62.3331 16C61.4691 16 60.1411 16.04 58.3491 16.12L58.5411 14.08ZM77.1079 6.496C77.0759 6.176 77.0199 5.96 76.9399 5.848C76.8599 5.736 76.6999 5.68 76.4599 5.68H75.8599L75.7399 5.464L75.8359 3.832C76.0919 3.832 76.5639 3.848 77.2519 3.88C77.9399 3.896 78.6279 3.904 79.3159 3.904C81.2359 3.904 82.1959 3.888 82.1959 3.856L82.0999 5.68C81.6839 5.744 81.3959 5.864 81.2359 6.04C81.0759 6.2 80.9879 6.472 80.9719 6.856L80.7079 15.904L76.5559 16.12C75.7239 14.856 74.9559 13.72 74.2519 12.712C73.5479 11.704 73.0999 11.064 72.9079 10.792H72.5719L72.6679 13.264C72.6839 13.648 72.7399 13.912 72.8359 14.056C72.9479 14.184 73.1559 14.248 73.4599 14.248C73.5879 14.248 73.7079 14.24 73.8199 14.224C73.9479 14.208 74.0359 14.192 74.0839 14.176L74.2999 14.344L74.0599 16.072C73.8039 16.072 73.3479 16.056 72.6919 16.024C72.0519 16.008 71.4439 16 70.8679 16C70.2759 16 69.6359 16.016 68.9479 16.048C68.2759 16.096 67.8439 16.128 67.6519 16.144L67.8679 14.32C68.2519 14.272 68.5239 14.16 68.6839 13.984C68.8599 13.792 68.9559 13.512 68.9719 13.144L69.2119 6.928C69.2119 6.624 69.1719 6.4 69.0919 6.256C69.0279 6.112 68.8919 6.008 68.6839 5.944C68.4919 5.864 68.1799 5.8 67.7479 5.752L67.4839 5.464L67.6039 3.808C67.7799 3.824 68.1799 3.848 68.8039 3.88C69.4279 3.896 70.0679 3.904 70.7239 3.904C71.3159 3.904 71.8679 3.896 72.3799 3.88C72.9079 3.864 73.2599 3.848 73.4359 3.832C74.0919 4.952 74.7719 6.048 75.4759 7.12C76.1959 8.176 76.6599 8.856 76.8679 9.16H77.2039L77.1079 6.496Z" fill="#D79C6B"/>
</svg>
