<svg width="121" height="14" viewBox="0 0 121 14" fill="none" xmlns="http://www.w3.org/2000/svg">
<path d="M3.64 13C3.17333 13 2.62667 13.0267 2 13.08C1.37333 13.1333 0.96 13.1733 0.76 13.2L0.9 11.88C1.47333 11.7733 1.86 11.6133 2.06 11.4C2.26 11.1733 2.36 10.8 2.36 10.28L2.38 2.44C2.38 2.06667 2.33333 1.80667 2.24 1.66C2.14667 1.51333 1.98 1.44 1.74 1.44C1.60667 1.44 1.47333 1.44667 1.34 1.46C1.20667 1.47333 1.11333 1.48 1.06 1.48L0.92 1.32L1.1 0.119999C1.31333 0.119999 1.7 0.126666 2.26 0.14C2.83333 0.153333 3.36667 0.16 3.86 0.16C4.36667 0.16 4.93333 0.146666 5.56 0.119999C6.18667 0.0933326 6.62667 0.0733329 6.88 0.0599997C8.25333 0.0599997 9.3 0.326666 10.02 0.859999C10.74 1.39333 11.1 2.16 11.1 3.16C11.1 3.82667 10.9067 4.42 10.52 4.94C10.1467 5.44667 9.62 5.87333 8.94 6.22C9.80667 6.44667 10.4933 6.80667 11 7.3C11.52 7.79333 11.78 8.42667 11.78 9.2C11.78 9.98667 11.56 10.6867 11.12 11.3C10.6933 11.9 10.0867 12.3667 9.3 12.7C8.52667 13.0333 7.62667 13.2 6.6 13.2C6.44 13.2 6.22 13.1867 5.94 13.16C5.66 13.1333 5.44667 13.1133 5.3 13.1C5.12667 13.0867 4.86 13.0667 4.5 13.04C4.14 13.0133 3.85333 13 3.64 13ZM5.02 5.64C5.18 5.65333 5.5 5.68667 5.98 5.74C6.46 5.79333 6.78 5.82 6.94 5.82C6.94 5.84667 7.06667 5.78 7.32 5.62C7.58667 5.44667 7.82 5.2 8.02 4.88C8.23333 4.56 8.34 4.15333 8.34 3.66C8.34 2.98 8.11333 2.48 7.66 2.16C7.20667 1.84 6.5 1.68 5.54 1.68C5.40667 1.68 5.31333 1.70667 5.26 1.76C5.22 1.81333 5.19333 1.91333 5.18 2.06C5.1 3.14 5.04667 4.33333 5.02 5.64ZM4.9 10.34C4.9 10.7667 5.04667 11.0733 5.34 11.26C5.63333 11.4333 6.12 11.52 6.8 11.52C7.45333 11.52 7.96667 11.34 8.34 10.98C8.71333 10.62 8.9 10.1267 8.9 9.5C8.9 8.95333 8.72 8.5 8.36 8.14C8.01333 7.76667 7.50667 7.50667 6.84 7.36L4.98 7.38L4.9 10.34ZM18.2191 13.18C16.7257 13.18 15.5524 12.7467 14.6991 11.88C13.8591 11 13.4391 9.78667 13.4391 8.24C13.4391 7.13333 13.6591 6.17333 14.0991 5.36C14.5391 4.53333 15.1657 3.9 15.9791 3.46C16.8057 3.02 17.7657 2.8 18.8591 2.8C20.3791 2.8 21.5591 3.23333 22.3991 4.1C23.2391 4.95333 23.6591 6.15333 23.6591 7.7C23.6591 8.80667 23.4324 9.77333 22.9791 10.6C22.5391 11.4267 21.9057 12.0667 21.0791 12.52C20.2657 12.96 19.3124 13.18 18.2191 13.18ZM18.6191 11.68C19.3391 11.68 19.8924 11.4133 20.2791 10.88C20.6657 10.3467 20.8591 9.57333 20.8591 8.56C20.8591 7.2 20.6457 6.18 20.2191 5.5C19.8057 4.82 19.2057 4.48 18.4191 4.48C17.7124 4.48 17.1724 4.74 16.7991 5.26C16.4257 5.78 16.2391 6.55333 16.2391 7.58C16.2391 8.95333 16.4391 9.98 16.8391 10.66C17.2524 11.34 17.8457 11.68 18.6191 11.68ZM29.9448 13.18C28.4515 13.18 27.2782 12.7467 26.4248 11.88C25.5848 11 25.1648 9.78667 25.1648 8.24C25.1648 7.13333 25.3848 6.17333 25.8248 5.36C26.2648 4.53333 26.8915 3.9 27.7048 3.46C28.5315 3.02 29.4915 2.8 30.5848 2.8C32.1048 2.8 33.2848 3.23333 34.1248 4.1C34.9648 4.95333 35.3848 6.15333 35.3848 7.7C35.3848 8.80667 35.1582 9.77333 34.7048 10.6C34.2648 11.4267 33.6315 12.0667 32.8048 12.52C31.9915 12.96 31.0382 13.18 29.9448 13.18ZM30.3448 11.68C31.0648 11.68 31.6182 11.4133 32.0048 10.88C32.3915 10.3467 32.5848 9.57333 32.5848 8.56C32.5848 7.2 32.3715 6.18 31.9448 5.5C31.5315 4.82 30.9315 4.48 30.1448 4.48C29.4382 4.48 28.8982 4.74 28.5248 5.26C28.1515 5.78 27.9648 6.55333 27.9648 7.58C27.9648 8.95333 28.1648 9.98 28.5648 10.66C28.9782 11.34 29.5715 11.68 30.3448 11.68ZM38.3106 4.9C38.3106 4.56667 38.2706 4.35333 38.1906 4.26C38.1106 4.15333 37.9506 4.1 37.7106 4.1H37.2306L37.1306 3.94L37.2706 2.96L39.5706 2.98C39.864 2.98 40.284 2.96667 40.8306 2.94C41.3906 2.91333 41.764 2.89333 41.9506 2.88L41.8706 4.02C41.4573 4.1 41.184 4.2 41.0506 4.32C40.9173 4.42667 40.844 4.62667 40.8306 4.92L40.6706 10.84C40.6573 11.2667 40.6906 11.5533 40.7706 11.7C40.864 11.8333 41.0373 11.9 41.2906 11.9C41.4506 11.9 41.584 11.8933 41.6906 11.88C41.8106 11.8667 41.884 11.86 41.9106 11.86L41.9906 11.98L41.8506 13.04C41.664 13.04 41.3173 13.0333 40.8106 13.02C40.3173 13.0067 39.844 13 39.3906 13C38.884 13 38.3973 13.0067 37.9306 13.02C37.4773 13.0333 37.1706 13.04 37.0106 13.04L37.1706 11.96C37.6373 11.8933 37.9373 11.7867 38.0706 11.64C38.2173 11.48 38.2906 11.1733 38.2906 10.72L38.3106 4.9ZM43.3306 5.32C43.5973 5.05333 43.7306 4.8 43.7306 4.56C43.7306 4.4 43.664 4.28667 43.5306 4.22C43.4106 4.14 43.204 4.09333 42.9106 4.08L42.8506 3.96L42.9906 2.92C43.1506 2.92 43.4373 2.93333 43.8506 2.96C44.2773 2.97333 44.6973 2.98 45.1106 2.98C45.4973 2.98 45.8906 2.97333 46.2906 2.96C46.6906 2.93333 46.964 2.92 47.1106 2.92L47.2506 3.1L47.1106 4.06C46.764 4.20667 46.424 4.42667 46.0906 4.72C45.7706 5 45.3706 5.42 44.8906 5.98L43.3906 7.56L45.4306 10.6C45.7506 11.08 46.044 11.4267 46.3106 11.64C46.5906 11.84 46.9106 11.9533 47.2706 11.98L47.3906 12.14L47.2506 13.06C47.064 13.0733 46.7506 13.1 46.3106 13.14C45.8706 13.1933 45.504 13.2267 45.2106 13.24C44.8506 13.24 44.524 13.14 44.2306 12.94C43.9506 12.7267 43.664 12.3933 43.3706 11.94L40.9706 8.08L41.0106 7.7L43.3306 5.32ZM72.6848 13.3C72.4848 12.5533 72.0582 10.9933 71.4048 8.62C70.7648 6.24667 70.1982 4.26 69.7048 2.66C69.5848 2.24667 69.4048 1.94667 69.1648 1.76C68.9382 1.56 68.6182 1.45333 68.2048 1.44L68.1248 1.3L68.2648 0.119999C68.4515 0.119999 68.7915 0.126666 69.2848 0.14C69.7782 0.153333 70.2782 0.16 70.7848 0.16C71.3848 0.16 72.0382 0.139999 72.7448 0.0999992C73.4648 0.0466657 73.9315 0.0133324 74.1448 -7.15256e-07L74.2448 0.16L74.1648 1.34C73.6982 1.39333 73.3582 1.44667 73.1448 1.5C72.9315 1.54 72.7848 1.60667 72.7048 1.7C72.6382 1.79333 72.6048 1.93333 72.6048 2.12C72.6048 2.41333 72.8648 3.67333 73.3848 5.9C73.9048 8.11333 74.2648 9.62 74.4648 10.42H74.7648C75.0848 9.60667 75.5915 8.08 76.2848 5.84C76.9782 3.6 77.3248 2.33333 77.3248 2.04C77.3248 1.81333 77.2448 1.65333 77.0848 1.56C76.9382 1.46667 76.6715 1.42 76.2848 1.42H75.4848L75.4048 1.28L75.5248 0.0599997C75.7115 0.0733329 76.1182 0.0933326 76.7448 0.119999C77.3848 0.146666 77.9648 0.16 78.4848 0.16C79.0182 0.16 79.4982 0.153333 79.9248 0.14C80.3648 0.126666 80.6582 0.119999 80.8048 0.119999L80.6648 1.42C80.3315 1.47333 80.0982 1.56667 79.9648 1.7C79.8315 1.82 79.6982 2.07333 79.5648 2.46L75.8648 12.9L72.6848 13.3ZM81.8853 12.02C82.3653 11.9267 82.6786 11.8 82.8253 11.64C82.972 11.4667 83.0453 11.16 83.0453 10.72L83.0653 4.9C83.0653 4.58 83.0253 4.36667 82.9453 4.26C82.8653 4.15333 82.7053 4.1 82.4653 4.1H81.9253L81.8453 3.94L81.9453 2.96L84.3253 2.98C84.6186 2.98 85.052 2.96667 85.6253 2.94C86.1986 2.91333 86.5786 2.89333 86.7653 2.88L86.6653 4.02C86.252 4.07333 85.9786 4.15333 85.8453 4.26C85.7253 4.36667 85.652 4.56667 85.6253 4.86C85.492 6.82 85.4253 8.81333 85.4253 10.84C85.4253 11.2667 85.4653 11.5533 85.5453 11.7C85.6253 11.8333 85.792 11.9 86.0453 11.9C86.2186 11.9 86.3586 11.8933 86.4653 11.88C86.5853 11.8667 86.6653 11.86 86.7053 11.86L86.8053 11.98L86.6653 13.04C86.4786 13.04 86.1253 13.0333 85.6053 13.02C85.0986 13.0067 84.612 13 84.1453 13C83.7586 13 83.3053 13.0133 82.7853 13.04C82.2653 13.08 81.9253 13.1067 81.7653 13.12L81.8853 12.02ZM93.1716 13.18C92.9982 13.1533 92.6382 13.1133 92.0916 13.06C91.5449 13.02 91.0716 13 90.6716 13C90.2982 13 89.8782 13.02 89.4116 13.06C88.9582 13.1133 88.6582 13.1467 88.5116 13.16L88.6116 11.98C89.0649 11.9133 89.3716 11.7933 89.5316 11.62C89.6916 11.4333 89.7716 11.12 89.7716 10.68L89.7916 4.94C89.7916 4.60667 89.7516 4.38667 89.6716 4.28C89.6049 4.16 89.4782 4.1 89.2916 4.1C89.1716 4.1 89.0582 4.10667 88.9516 4.12C88.8582 4.13333 88.7916 4.14 88.7516 4.14L88.6516 3.98L88.7916 2.94C88.9516 2.94 89.2516 2.94667 89.6916 2.96C90.1316 2.97333 90.5516 2.98 90.9516 2.98C91.4449 2.98 91.9582 2.97333 92.4916 2.96C93.0249 2.93333 93.3916 2.91333 93.5916 2.9C95.2716 2.9 96.5782 3.30667 97.5116 4.12C98.4449 4.93333 98.9116 6.08667 98.9116 7.58C98.9116 8.68667 98.6716 9.66667 98.1916 10.52C97.7116 11.36 97.0316 12.0133 96.1516 12.48C95.2849 12.9467 94.2916 13.18 93.1716 13.18ZM92.7716 4.42C92.5982 4.42 92.4782 4.44667 92.4116 4.5C92.3582 4.55333 92.3249 4.65333 92.3116 4.8C92.1782 7.4 92.1116 9.35333 92.1116 10.66C92.1116 11.0733 92.1916 11.3467 92.3516 11.48C92.5249 11.6133 92.8516 11.68 93.3316 11.68C95.1716 11.68 96.0916 10.48 96.0916 8.08C96.0916 6.78667 95.8249 5.85333 95.2916 5.28C94.7582 4.70667 93.9182 4.42 92.7716 4.42ZM100.649 12C101.103 11.9467 101.409 11.8267 101.569 11.64C101.729 11.44 101.809 11.1067 101.809 10.64L101.829 4.94C101.829 4.60667 101.796 4.38667 101.729 4.28C101.663 4.16 101.523 4.1 101.309 4.1L100.829 4.12L100.709 3.96L100.849 2.94C101.063 2.94 101.469 2.94667 102.069 2.96C102.683 2.97333 103.336 2.98 104.029 2.98C106.389 2.98 108.069 2.92 109.069 2.8L109.209 2.98C109.169 3.15333 109.103 3.53333 109.009 4.12C108.929 4.69333 108.869 5.28667 108.829 5.9L107.169 6C107.169 5.96 107.176 5.88 107.189 5.76C107.203 5.62667 107.209 5.5 107.209 5.38C107.209 5.08667 107.163 4.88 107.069 4.76C106.976 4.64 106.796 4.56 106.529 4.52C106.263 4.46667 105.823 4.44 105.209 4.44C104.849 4.44 104.623 4.46667 104.529 4.52C104.449 4.57333 104.403 4.70667 104.389 4.92L104.289 7.18H105.769C106.009 7.18 106.349 7.16667 106.789 7.14C107.229 7.1 107.523 7.07333 107.669 7.06L107.829 7.24L107.589 8.68C107.443 8.68 107.163 8.67333 106.749 8.66C106.349 8.64667 105.923 8.64 105.469 8.64C105.109 8.64 104.696 8.67333 104.229 8.74C104.203 9.38 104.189 10.0333 104.189 10.7C104.189 10.9933 104.209 11.2 104.249 11.32C104.289 11.44 104.376 11.5267 104.509 11.58C104.643 11.62 104.869 11.64 105.189 11.64C105.856 11.64 106.343 11.6 106.649 11.52C106.956 11.4267 107.176 11.2667 107.309 11.04C107.443 10.8 107.549 10.4133 107.629 9.88L109.149 9.76L109.309 9.94C109.269 10.1 109.196 10.4733 109.089 11.06C108.996 11.6467 108.916 12.2667 108.849 12.92L108.669 13.1C108.336 13.0867 107.609 13.0667 106.489 13.04C105.383 13.0133 104.383 13 103.489 13C102.863 13 102.256 13.02 101.669 13.06C101.083 13.1133 100.703 13.1467 100.529 13.16L100.649 12ZM115.509 13.18C114.016 13.18 112.842 12.7467 111.989 11.88C111.149 11 110.729 9.78667 110.729 8.24C110.729 7.13333 110.949 6.17333 111.389 5.36C111.829 4.53333 112.456 3.9 113.269 3.46C114.096 3.02 115.056 2.8 116.149 2.8C117.669 2.8 118.849 3.23333 119.689 4.1C120.529 4.95333 120.949 6.15333 120.949 7.7C120.949 8.80667 120.722 9.77333 120.269 10.6C119.829 11.4267 119.196 12.0667 118.369 12.52C117.556 12.96 116.602 13.18 115.509 13.18ZM115.909 11.68C116.629 11.68 117.182 11.4133 117.569 10.88C117.956 10.3467 118.149 9.57333 118.149 8.56C118.149 7.2 117.936 6.18 117.509 5.5C117.096 4.82 116.496 4.48 115.709 4.48C115.002 4.48 114.462 4.74 114.089 5.26C113.716 5.78 113.529 6.55333 113.529 7.58C113.529 8.95333 113.729 9.98 114.129 10.66C114.542 11.34 115.136 11.68 115.909 11.68Z" fill="#EEE5E0"/>
<path d="M48.8183 11.9C49.4049 11.78 49.7983 11.6133 49.9983 11.4C50.1983 11.1733 50.2983 10.78 50.2983 10.22V2.48C50.2983 2.06667 50.2516 1.79333 50.1583 1.66C50.0649 1.51333 49.8716 1.44 49.5783 1.44L48.8783 1.46L48.7783 1.3L48.9383 0.14L51.6983 0.16C52.1383 0.16 53.0716 0.113333 54.4983 0.019999L54.3983 1.34C53.8916 1.40667 53.5516 1.51333 53.3783 1.66C53.2183 1.79333 53.1249 2.04667 53.0983 2.42C52.9249 5.56667 52.8383 8.21333 52.8383 10.36C52.8383 10.9067 52.8916 11.2733 52.9983 11.46C53.1049 11.6467 53.3116 11.74 53.6183 11.74C53.7649 11.74 54.0583 11.72 54.4983 11.68L54.5783 11.8L54.3983 13.06L53.6783 13.04L51.4583 13C50.8449 13 49.9249 13.06 48.6983 13.18L48.8183 11.9ZM64.343 4.76C64.3296 4.50667 64.283 4.33333 64.203 4.24C64.123 4.14667 63.9896 4.1 63.803 4.1H63.243L63.183 3.96L63.283 2.92C63.443 2.93333 63.743 2.94667 64.183 2.96C64.623 2.97333 65.0696 2.98 65.523 2.98C65.963 2.98 66.3763 2.97333 66.763 2.96C67.1496 2.93333 67.4096 2.91333 67.543 2.9L67.463 4.04C67.103 4.09333 66.843 4.19333 66.683 4.34C66.5363 4.48667 66.4563 4.71333 66.443 5.02L66.203 13.16L64.223 13.36C63.2096 11.8667 62.2563 10.5067 61.363 9.28C60.483 8.04 59.923 7.25333 59.683 6.92H59.503V11.18C59.503 11.46 59.543 11.6533 59.623 11.76C59.7163 11.8667 59.8696 11.92 60.083 11.92C60.203 11.92 60.3296 11.9133 60.463 11.9C60.6096 11.8867 60.7096 11.88 60.763 11.88L60.863 11.98L60.683 13.06C60.523 13.06 60.223 13.0467 59.783 13.02C59.343 13.0067 58.9096 13 58.483 13C58.0963 13 57.6763 13.0133 57.223 13.04C56.783 13.08 56.4963 13.1067 56.363 13.12L56.503 11.98C56.8363 11.94 57.0763 11.8467 57.223 11.7C57.3696 11.5533 57.4496 11.32 57.463 11L57.683 5.04C57.683 4.70667 57.5963 4.48 57.423 4.36C57.2496 4.22667 56.8963 4.12667 56.363 4.06L56.223 3.9L56.343 2.9C56.463 2.91333 56.7363 2.93333 57.163 2.96C57.5896 2.97333 57.983 2.98 58.343 2.98C58.7296 2.98 59.083 2.97333 59.403 2.96C59.723 2.94667 59.9363 2.93333 60.043 2.92C60.8696 4.21333 61.703 5.46 62.543 6.66C63.3963 7.84667 63.9496 8.60667 64.203 8.94H64.383L64.343 4.76Z" fill="#D79C6B"/>
</svg>
