<svg width="15" height="13" viewBox="0 0 15 13" fill="none" xmlns="http://www.w3.org/2000/svg">
<path d="M1.61972 13C1.03632 13 0.563385 12.5271 0.563385 11.9437L0.563385 4.05634C0.563385 3.47294 1.03632 3 1.61972 3V3L1.61972 13V13Z" fill="#B0B2B3"/>
<path d="M1.61972 13L1.61972 12L11.1268 12V12C11.1268 12.5523 10.679 13 10.1268 13L1.61972 13Z" fill="#B0B2B3"/>
<rect x="1.61972" y="4" width="1" height="2.11268" transform="rotate(-90 1.61972 4)" fill="#B0B2B3"/>
<rect x="10.0704" y="12" width="2" height="1.05634" transform="rotate(-90 10.0704 12)" fill="#B0B2B3"/>
<path d="M4.78873 10C4.20533 10 3.73239 9.52706 3.73239 8.94366L3.73239 1.05634C3.73239 0.472938 4.20533 0 4.78873 0V0L4.78873 10V10Z" fill="#B0B2B3"/>
<path d="M4.78873 10V9L14.2958 9V9C14.2958 9.55228 13.8481 10 13.2958 10L4.78873 10Z" fill="#B0B2B3"/>
<path d="M4.78873 1V0L13.2958 0C13.8481 0 14.2958 0.447715 14.2958 1V1L4.78873 1Z" fill="#B0B2B3"/>
<rect x="13.2394" y="9" width="8" height="1.05634" transform="rotate(-90 13.2394 9)" fill="#B0B2B3"/>
</svg>
